# xmcd CD database file
#
# Track frame offsets:
#	150
#	18742
#	43305
#	62835
#	76647
#	100370
#	160227
#	186145
#	224020
#	252300
#	272515
#
# Disc length: 4040 seconds
#
# Revision: 0
# Processed by: cddbd v1.5PL3 Copyright (c) Steve Scherf et al.
# Submitted via: CDex 1.51
#
DISCID=9c0fc60b
DTITLE=Troubere Quartet - Troubere Quartet
DYEAR=1994
DGENRE=Jazz
TTITLE0=My Favorite Things
TTITLE1=Strange Grass Hopper
TTITLE2=St.Thomas
TTITLE3=勝利
TTITLE4=ブエノスアイレスの夏
TTITLE5=私が愛したロイド・ウェバー
TTITLE6=Roundabout
TTITLE7=The 7th Wonder
TTITLE8=Bigmuff
TTITLE9=Ultra Violet
TTITLE10=21st Century Schizoid Man
EXTD=YEAR: 1994
EXTT0=
EXTT1=
EXTT2=
EXTT3=
EXTT4=
EXTT5=
EXTT6=
EXTT7=
EXTT8=
EXTT9=
EXTT10=
PLAYORDER=
